<?xml version="1.0" standalone="no"?>
<!DOCTYPE svg PUBLIC "-//W3C//DTD SVG 20010904//EN"
 "http://www.w3.org/TR/2001/REC-SVG-20010904/DTD/svg10.dtd">
<svg version="1.0" xmlns="http://www.w3.org/2000/svg"
 width="512.000000pt" height="512.000000pt" viewBox="0 0 512.000000 512.000000"
 preserveAspectRatio="xMidYMid meet">
<metadata>
Created by potrace 1.11, written by Peter Selinger 2001-2013
</metadata>
<g transform="translate(0.000000,512.000000) scale(0.100000,-0.100000)"
fill="#000000" stroke="none">
<path d="M1845 4893 c-35 -19 -64 -49 -76 -80 l-9 -23 -537 0 c-424 0 -543 -3
-563 -13 -47 -25 -420 -308 -430 -327 -7 -13 -9 -538 -8 -1579 l3 -1561 26
-26 c18 -18 38 -26 62 -27 42 -1 41 -6 -24 -74 -25 -26 -51 -58 -57 -70 -16
-29 -17 -811 -1 -846 6 -13 23 -31 39 -40 26 -16 197 -17 2283 -17 1624 0
2263 3 2286 11 60 21 61 26 61 471 0 453 7 409 -82 503 -26 27 -46 50 -45 52
1 1 14 4 29 7 37 6 64 22 82 48 14 20 16 188 16 1571 0 1405 -2 1552 -16 1583
-9 19 -20 34 -25 34 -5 0 -93 63 -195 141 -103 77 -198 145 -211 150 -14 5
-257 9 -552 9 l-528 0 -19 36 c-10 20 -37 47 -60 60 l-41 24 -689 0 c-614 -1
-692 -3 -719 -17z"/>
</g>
</svg>
